<svg width="280" height="60" viewBox="0 0 280 60" fill="none" xmlns="http://www.w3.org/2000/svg">
<path d="M104.67 21.35H95.55L93.87 26H90.99L98.55 5.21H101.7L109.23 26H106.35L104.67 21.35ZM103.89 19.13L100.11 8.57L96.33 19.13H103.89ZM137.803 5.09L129.913 26H126.763L118.873 5.09H121.783L128.353 23.12L134.923 5.09H137.803ZM143.526 5.09V26H140.796V5.09H143.526ZM159.189 26L154.209 17.45H150.909V26H148.179V5.09H154.929C156.509 5.09 157.839 5.36 158.919 5.9C160.019 6.44 160.839 7.17 161.379 8.09C161.919 9.01 162.189 10.06 162.189 11.24C162.189 12.68 161.769 13.95 160.929 15.05C160.109 16.15 158.869 16.88 157.209 17.24L162.459 26H159.189ZM150.909 15.26H154.929C156.409 15.26 157.519 14.9 158.259 14.18C158.999 13.44 159.369 12.46 159.369 11.24C159.369 10 158.999 9.04 158.259 8.36C157.539 7.68 156.429 7.34 154.929 7.34H150.909V15.26ZM178.791 21.35H169.671L167.991 26H165.111L172.671 5.21H175.821L183.351 26H180.471L178.791 21.35ZM178.011 19.13L174.231 8.57L170.451 19.13H178.011ZM193.156 5.09C195.436 5.09 197.406 5.52 199.066 6.38C200.746 7.22 202.026 8.43 202.906 10.01C203.806 11.59 204.256 13.45 204.256 15.59C204.256 17.73 203.806 19.59 202.906 21.17C202.026 22.73 200.746 23.93 199.066 24.77C197.406 25.59 195.436 26 193.156 26H186.646V5.09H193.156ZM193.156 23.75C195.856 23.75 197.916 23.04 199.336 21.62C200.756 20.18 201.466 18.17 201.466 15.59C201.466 12.99 200.746 10.96 199.306 9.5C197.886 8.04 195.836 7.31 193.156 7.31H189.376V23.75H193.156ZM220.217 21.35H211.097L209.417 26H206.537L214.097 5.21H217.247L224.777 26H221.897L220.217 21.35ZM219.437 19.13L215.657 8.57L211.877 19.13H219.437ZM106.5 34.76V40.04H98.16V42.98H104.16V47.99H98.16V56H91.5V34.76H106.5ZM115.416 34.76V56H108.756V34.76H115.416ZM138.794 56H132.134L125.084 45.32V56H118.424V34.76H125.084L132.134 45.62V34.76H138.794V56ZM155.423 52.79H148.343L147.293 56H140.303L148.073 34.76H155.753L163.493 56H156.473L155.423 52.79ZM153.803 47.78L151.883 41.87L149.963 47.78H153.803ZM185.376 56H178.716L171.666 45.32V56H165.006V34.76H171.666L178.716 45.62V34.76H185.376V56ZM187.785 45.35C187.785 43.25 188.205 41.38 189.045 39.74C189.905 38.1 191.125 36.83 192.705 35.93C194.285 35.01 196.145 34.55 198.285 34.55C200.125 34.55 201.765 34.9 203.205 35.6C204.665 36.28 205.845 37.25 206.745 38.51C207.665 39.77 208.275 41.24 208.575 42.92H201.555C201.235 42.22 200.775 41.68 200.175 41.3C199.595 40.9 198.925 40.7 198.165 40.7C197.045 40.7 196.155 41.12 195.495 41.96C194.855 42.8 194.535 43.93 194.535 45.35C194.535 46.77 194.855 47.9 195.495 48.74C196.155 49.58 197.045 50 198.165 50C198.925 50 199.595 49.81 200.175 49.43C200.775 49.03 201.235 48.48 201.555 47.78H208.575C208.275 49.46 207.665 50.93 206.745 52.19C205.845 53.45 204.665 54.43 203.205 55.13C201.765 55.81 200.125 56.15 198.285 56.15C196.145 56.15 194.285 55.7 192.705 54.8C191.125 53.88 189.905 52.6 189.045 50.96C188.205 49.32 187.785 47.45 187.785 45.35ZM217.633 40.07V42.68H224.233V47.69H217.633V50.69H225.133V56H210.973V34.76H225.133V40.07H217.633ZM234.303 34.76V56H227.643V34.76H234.303ZM247.991 56L244.001 48.38H243.971V56H237.311V34.76H247.211C248.931 34.76 250.401 35.07 251.621 35.69C252.841 36.29 253.751 37.12 254.351 38.18C254.971 39.22 255.281 40.4 255.281 41.72C255.281 43.14 254.881 44.4 254.081 45.5C253.301 46.6 252.171 47.39 250.691 47.87L255.311 56H247.991ZM243.971 43.94H246.611C247.251 43.94 247.731 43.8 248.051 43.52C248.371 43.22 248.531 42.76 248.531 42.14C248.531 41.58 248.361 41.14 248.021 40.82C247.701 40.5 247.231 40.34 246.611 40.34H243.971V43.94ZM271.028 52.79H263.948L262.898 56H255.908L263.678 34.76H271.358L279.098 56H272.078L271.028 52.79ZM269.408 47.78L267.488 41.87L265.568 47.78H269.408Z" fill="white"/>
<path d="M75.543 21.2636L64.7353 9.80185C63.812 8.82172 62.2705 8.77677 61.289 9.70019L49.8233 20.5027C48.8432 21.4259 48.7969 22.9702 49.7203 23.9503C50.6436 24.9304 52.1851 24.9779 53.1679 24.0533L62.8583 14.9217L71.9939 24.6107C72.4746 25.1206 73.122 25.3768 73.7693 25.3768C74.3689 25.3768 74.97 25.1562 75.4428 24.711C76.4215 23.7866 76.4664 22.2437 75.543 21.2636Z" fill="url(#paint0_linear_813_2)"/>
<path d="M62.7182 18.6457C61.3313 18.5888 60.248 19.6654 60.2098 21.0115C59.8386 33.6991 56.5773 49.2623 50.2962 53.4495C46.8195 55.7663 43.6505 55.6699 40.6072 53.1563C31.4306 45.5768 27.147 20.9533 32.7053 7.72827C33.5163 5.79571 34.6973 4.75352 35.9191 4.88956C37.248 5.02962 38.8462 6.4972 39.3323 9.036C40.685 16.0871 38.3693 27.031 33.5705 36.2669C32.9497 37.4624 33.4147 38.9338 34.61 39.556C35.8042 40.1755 37.2783 39.7105 37.8978 38.5165C43.2476 28.2224 45.69 16.2892 44.1207 8.11794C43.2714 3.67829 40.1791 0.431456 36.425 0.0391092C32.9589 -0.322874 29.8851 1.84486 28.2075 5.83932C21.8789 20.8953 26.8298 48.105 37.4989 56.9157C39.9875 58.9697 42.6914 60 45.4667 60C47.9567 60 50.5034 59.1705 53.0012 57.5073C63.924 50.2238 64.9979 24.1077 65.0837 21.1541C65.1223 19.8081 64.0642 18.6854 62.7182 18.6457Z" fill="url(#paint1_linear_813_2)"/>
<path d="M25.4259 46.8806C21.6783 49.6506 19.8107 48.0233 19.1065 47.4117C15.5188 44.2877 12.7039 31.0321 14.4013 25.2519C14.6959 24.2519 15.0909 23.6918 15.3326 23.6575C15.4329 23.6403 15.5347 23.6284 15.7843 23.9071C17.4104 25.7313 18.0868 32.073 16.5545 37.8284C16.2084 39.1321 16.9837 40.4663 18.2849 40.8137C19.5913 41.1584 20.9228 40.3831 21.2689 39.0819C22.9174 32.8894 22.6769 24.3073 19.4249 20.6602C18.1356 19.2165 16.429 18.5666 14.6259 18.832C13.2917 19.0274 10.8797 19.943 9.72395 23.8779C7.66205 30.9013 10.5654 46.4393 15.9059 51.0903C17.6074 52.5712 19.5478 53.3108 21.5938 53.3108C23.7719 53.3108 26.0678 52.4746 28.324 50.805C29.4071 50.0045 29.6369 48.4762 28.8364 47.3943C28.036 46.3101 26.5103 46.0829 25.4259 46.8806Z" fill="url(#paint2_linear_813_2)"/>
<path d="M9.34876 44.6576C7.13355 43.4358 5.40445 39.5072 4.84049 36.2592C4.61068 34.933 3.35312 34.0427 2.02158 34.2725C0.695398 34.5036 -0.193634 35.7664 0.0361781 37.0927C0.744218 41.1717 2.98979 46.7183 6.99081 48.9282C7.3647 49.1342 7.7688 49.2306 8.1677 49.2306C9.02637 49.2306 9.85854 48.7762 10.3049 47.9717C10.9551 46.7923 10.527 45.3089 9.34876 44.6576Z" fill="url(#paint3_linear_813_2)"/>
<defs>
<linearGradient id="paint0_linear_813_2" x1="62.6321" y1="9.03613" x2="62.6321" y2="25.3768" gradientUnits="userSpaceOnUse">
<stop stop-color="#FBF0D1"/>
<stop offset="1" stop-color="#D6B96B"/>
</linearGradient>
<linearGradient id="paint1_linear_813_2" x1="45.2458" y1="0" x2="45.2458" y2="60" gradientUnits="userSpaceOnUse">
<stop stop-color="#FBF0D1"/>
<stop offset="1" stop-color="#D6B96B"/>
</linearGradient>
<linearGradient id="paint2_linear_813_2" x1="19.1855" y1="18.7739" x2="19.1855" y2="53.3108" gradientUnits="userSpaceOnUse">
<stop stop-color="#FBF0D1"/>
<stop offset="1" stop-color="#D6B96B"/>
</linearGradient>
<linearGradient id="paint3_linear_813_2" x1="5.3043" y1="34.2363" x2="5.3043" y2="49.2306" gradientUnits="userSpaceOnUse">
<stop stop-color="#FBF0D1"/>
<stop offset="1" stop-color="#D6B96B"/>
</linearGradient>
</defs>
</svg>
